<svg version="1.1" id="Layer_1" xmlns="http://www.w3.org/2000/svg" xmlns:xlink="http://www.w3.org/1999/xlink" x="0px" y="0px"
	 width="100%" viewBox="0 0 640 674" enable-background="new 0 0 640 674" xml:space="preserve">
<path fill="#000000" opacity="0.000000" stroke="none"
	d="
M365.000000,675.000000 
	C243.333359,675.000000 122.166710,675.000000 1.000049,675.000000 
	C1.000033,450.333405 1.000033,225.666794 1.000016,1.000139 
	C214.333237,1.000093 427.666473,1.000093 640.999756,1.000046 
	C640.999878,225.666519 640.999878,450.333038 640.999939,674.999756 
	C549.166687,675.000000 457.333344,675.000000 365.000000,675.000000 
M528.626465,610.062744 
	C573.993896,578.068604 608.923096,537.102295 634.120972,487.304840 
	C535.630066,437.940399 437.202057,388.607513 338.195587,338.984650 
	C437.742462,289.728943 536.423157,240.901810 635.276184,191.989395 
	C633.004578,188.090195 630.953918,184.956299 629.278809,181.633133 
	C617.095398,157.463135 601.390808,135.641266 583.069214,115.934258 
	C570.854126,102.795547 557.098389,91.033630 543.561279,79.193962 
	C527.348572,65.014145 508.949615,53.926888 489.895782,44.049358 
	C465.273285,31.285030 439.379486,21.932356 412.323669,15.555315 
	C392.699738,10.929963 372.821259,8.405689 352.819458,7.204765 
	C340.126404,6.442667 327.314667,7.682333 314.555389,7.993058 
	C297.672089,8.404213 281.185150,11.422992 264.697723,14.889112 
	C231.267456,21.917107 199.892197,34.273418 170.472961,51.349789 
	C143.133087,67.219200 117.984329,86.126427 96.759529,109.801727 
	C88.433937,119.088547 80.115799,128.420090 72.402237,138.210281 
	C50.736626,165.708664 34.742188,196.412445 23.135027,229.321793 
	C16.459192,248.249512 11.281684,267.667297 8.957179,287.719147 
	C7.696498,298.594147 5.450801,309.434753 5.185349,320.328308 
	C4.666281,341.629700 4.538036,362.938873 7.848584,384.172272 
	C10.502846,401.196350 13.835503,417.988495 18.797531,434.483734 
	C25.861124,457.965149 35.279243,480.413605 47.308975,501.798462 
	C59.576088,523.605408 73.981422,543.916321 90.931190,562.240234 
	C111.719391,584.713806 134.792679,604.529358 161.005325,620.709229 
	C183.426834,634.548950 206.963821,645.752380 231.921768,653.970825 
	C248.214233,659.335876 264.669647,664.273499 281.848480,666.019653 
	C298.961945,667.758972 316.067780,669.687012 333.223206,670.850037 
	C341.256378,671.394592 349.423187,670.623718 357.485382,669.933838 
	C370.358765,668.832336 383.352661,668.137939 396.011627,665.759949 
	C416.184601,661.970398 435.988525,656.579529 455.216827,649.100769 
	C481.024445,639.063049 505.387573,626.441711 528.626465,610.062744 
z"/>
<path fill="#FFCC00" opacity="1.000000" stroke="none" 
	d="
M528.324341,610.276428 
	C505.387573,626.441711 481.024445,639.063049 455.216827,649.100769 
	C435.988525,656.579529 416.184601,661.970398 396.011627,665.759949 
	C383.352661,668.137939 370.358765,668.832336 357.485382,669.933838 
	C349.423187,670.623718 341.256378,671.394592 333.223206,670.850037 
	C316.067780,669.687012 298.961945,667.758972 281.848480,666.019653 
	C264.669647,664.273499 248.214233,659.335876 231.921768,653.970825 
	C206.963821,645.752380 183.426834,634.548950 161.005325,620.709229 
	C134.792679,604.529358 111.719391,584.713806 90.931190,562.240234 
	C73.981422,543.916321 59.576088,523.605408 47.308975,501.798462 
	C35.279243,480.413605 25.861124,457.965149 18.797531,434.483734 
	C13.835503,417.988495 10.502846,401.196350 7.848584,384.172272 
	C4.538036,362.938873 4.666281,341.629700 5.185349,320.328308 
	C5.450801,309.434753 7.696498,298.594147 8.957179,287.719147 
	C11.281684,267.667297 16.459192,248.249512 23.135027,229.321793 
	C34.742188,196.412445 50.736626,165.708664 72.402237,138.210281 
	C80.115799,128.420090 88.433937,119.088547 96.759529,109.801727 
	C117.984329,86.126427 143.133087,67.219200 170.472961,51.349789 
	C199.892197,34.273418 231.267456,21.917107 264.697723,14.889112 
	C281.185150,11.422992 297.672089,8.404213 314.555389,7.993058 
	C327.314667,7.682333 340.126404,6.442667 352.819458,7.204765 
	C372.821259,8.405689 392.699738,10.929963 412.323669,15.555315 
	C439.379486,21.932356 465.273285,31.285030 489.895782,44.049358 
	C508.949615,53.926888 527.348572,65.014145 543.561279,79.193962 
	C557.098389,91.033630 570.854126,102.795547 583.069214,115.934258 
	C601.390808,135.641266 617.095398,157.463135 629.278809,181.633133 
	C630.953918,184.956299 633.004578,188.090195 635.276184,191.989395 
	C536.423157,240.901810 437.742462,289.728943 338.195587,338.984650 
	C437.202057,388.607513 535.630066,437.940399 634.120972,487.304840 
	C608.923096,537.102295 573.993896,578.068604 528.324341,610.276428 
z"/>
</svg>